<svg width="200" height="40" viewBox="0 0 200 40" fill="none" xmlns="http://www.w3.org/2000/svg">
    <path fill-rule="evenodd" clip-rule="evenodd" d="M0 23.767v10.778h191.569C196.82 30.757 200 24.372 200 15.06V0H23.637C9.9 0 0 7.326 0 23.767z" fill="#009AA9"/>
    <path fill-rule="evenodd" clip-rule="evenodd" d="M191.569 34.545H0V40h176.691c5.965 0 10.537-2.409 14.878-5.455z" fill="#E42313"/>
    <path fill-rule="evenodd" clip-rule="evenodd" d="M168.99 23.117c0-1.31-2.434-1.653-5.378-1.936-5.215-.523-7.44-2.215-7.44-5.66 0-3.53 2.692-5.556 7.388-5.556.39-.01 4.064.07 5.32.151l.035.002c1.779.138 2.718.82 2.718 1.978 0 1.122-.855 1.847-2.176 1.847-1.449 0-3.134-.154-5.212-.154-3.649 0-4.153.796-4.153 1.656 0 1.226.833 1.612 4.456 2.066 5.937.739 8.362 2.347 8.362 5.555 0 1.504-.476 2.937-1.863 4.044-1.407 1.122-3.505 1.691-6.238 1.691-2.425 0-4.96-.031-6.938-.406-1.111-.219-1.775-.938-1.775-1.929 0-1.123.825-1.821 2.15-1.821 1.116 0 3.401.36 5.999.36 3.284 0 4.745-.582 4.745-1.888zM43.664 25.885c.683 1.772 2.31 2.916 4.149 2.916 1.909 0 3.572-1.18 4.143-3.04l4.05-13.16a2.038 2.038 0 0 0-1.33-2.544 2.01 2.01 0 0 0-2.524 1.341l-4.001 13.007c-.064.21-.2.34-.357.34-.153 0-.292-.123-.368-.332l-3.364-8.721c-.508-1.323-1.142-2.968-3.011-2.968-1.866 0-2.5 1.645-3.009 2.968l-3.362 8.723c-.077.207-.215.33-.37.33-.158 0-.293-.13-.357-.34l-4.001-13.007a2.008 2.008 0 0 0-2.524-1.341 2.04 2.04 0 0 0-1.33 2.544l4.05 13.16c.575 1.87 2.244 3.04 4.143 3.04 1.838 0 3.467-1.144 4.15-2.916l2.61-6.774 2.613 6.774zm72.609-6.507c0-3.43 2.548-5.826 6.196-5.826 3.647 0 6.194 2.397 6.194 5.826 0 3.437-2.547 5.835-6.194 5.835-3.648 0-6.196-2.398-6.196-5.835zm-3.539.003c0 5.46 4.282 9.42 10.179 9.42 5.895 0 10.175-3.96 10.175-9.42 0-5.456-4.28-9.417-10.175-9.417-5.897 0-10.179 3.961-10.179 9.417zm-31.859-9.6v13.156c0 3.837 2.2 5.864 6.36 5.864.815 0 1.574-.079 2.19-.227 1.373-.293 2.07-.941 2.07-1.926 0-.99-.581-1.897-2.156-1.799-.174.01-1.584.152-2.053.152-2.106 0-2.537-1.129-2.537-2.82v-7.522h4.1c1.538 0 2.352-.638 2.352-1.848 0-1.143-.879-1.825-2.353-1.825h-4.1V9.805c0-1.538-.74-2.532-1.888-2.532-1.206 0-1.985.985-1.985 2.508zm69.361 8.7v7.8c0 1.53.808 2.52 2.057 2.52 1.013 0 2.033-.787 2.033-2.547v-8.33c0-4.836-3.621-7.96-9.227-7.96-5.685 0-9.357 3.124-9.357 7.96v8.357c0 1.53.806 2.52 2.057 2.52 1.013 0 2.031-.787 2.031-2.547V18.48c0-3.13 1.764-4.719 5.241-4.719 3.495 0 5.165 1.553 5.165 4.719zm-56.088 7.985c0 .991.666 1.71 1.777 1.929 1.977.375 4.512.406 6.939.406 2.732 0 4.83-.569 6.236-1.69 1.387-1.108 1.863-2.54 1.863-4.045 0-3.208-2.423-4.816-8.361-5.555-3.623-.454-4.458-.84-4.458-2.066 0-.86.505-1.656 4.156-1.656 2.075 0 3.763.154 5.209.154 1.324 0 2.177-.725 2.177-1.847 0-1.157-.939-1.84-2.716-1.978l-.036-.002c-1.256-.08-4.929-.161-5.321-.151-4.695 0-7.388 2.025-7.388 5.557 0 3.444 2.225 5.136 7.442 5.659 2.942.283 5.378.626 5.378 1.936 0 1.305-1.464 1.888-4.745 1.888-2.599 0-4.883-.36-6-.36-1.327 0-2.152.698-2.152 1.821zm-32.742-7.031v-.079c0-3.418 2.492-5.804 6.061-5.804 4.02 0 6.329 2.097 6.329 5.752 0 3.53-2.612 5.91-6.329 5.91-3.57 0-6.06-2.376-6.06-5.78zm13.408 8.682c.376.392.903.61 1.484.61 1.167 0 1.921-.993 1.921-2.528v-6.755c0-5.934-3.822-9.48-10.226-9.48-5.868 0-10.128 3.946-10.128 9.38 0 5.39 4.174 9.457 9.706 9.457 3.232 0 5.448-1.436 6.623-2.663l.06.066c0 1.025.137 1.467.56 1.913z" fill="#FEFEFE"/>
</svg>
